0
SECTION
2
HEADER
9
$ACADVER
1
AC1006
9
$INSBASE
10
0.0
20
0.0
30
0.0
9
$EXTMIN
10
0.0
20
0.0
9
$EXTMAX
10
0.0
20
0.0
0
ENDSEC
0
SECTION
2
TABLES
0
TABLE
2
LTYPE
70
1
0
LTYPE
2
CONTINUOUS
70
64
3
Solid line
72
65
73
0
40
0.0
0
ENDTAB
0
TABLE
2
LAYER
70
5
0
LAYER
2
PYDXF
70
64
62
7
6
continuous
0
LAYER
2
TEXT
70
64
62
2
6
continuous
0
LAYER
2
CAM
70
64
62
1
6
continuous
0
LAYER
2
ROLLER
70
64
62
5
6
continuous
0
LAYER
2
PRESSURE
70
64
62
3
6
continuous
0
ENDTAB
0
TABLE
2
STYLE
70
1
0
STYLE
2
STANDARD
70
0
40
0
41
40
50
50
71
0
42
1
3
ARIAL.TTF
4

0
ENDTAB
0
TABLE
2
VIEW
70
0
0
ENDTAB
0
ENDSEC
0
SECTION
2
BLOCKS
0
ENDSEC
0
SECTION
2
ENTITIES
0
TEXT
8
text
10
0.9500000000000001
20
0.7
40
0.1
1
pitch=0.08
0
TEXT
8
text
10
0.9500000000000001
20
0.5
40
0.1
1
pin diameter=0.15
0
TEXT
8
text
10
0.9500000000000001
20
0.3
40
0.1
1
eccentricity=0.05
0
TEXT
8
text
10
0.9500000000000001
20
0.1
40
0.1
1
# of teeth=10
0
TEXT
8
text
10
0.9500000000000001
20
-0.1
40
0.1
1
pressure angle limit=50.0
0
TEXT
8
text
10
0.9500000000000001
20
-0.3
40
0.1
1
pressure angle offset=0.01
0
TEXT
8
text
10
0.9500000000000001
20
-0.5
40
0.1
1
min angle=13.0
0
TEXT
8
text
10
0.9500000000000001
20
-0.7
40
0.1
1
max angle=112.0
0
CIRCLE
8
pressure
10
-0.05
20
0
40
0.6848906891837583
0
CIRCLE
8
pressure
10
-0.05
20
0
40
0.7522366536708452
0
LINE
8
cam
10
0.7150000000000001
20
0.0
11
0.7143966209138201
21
0.014996892634305243
0
LINE
8
cam
10
0.7143966209138201
20
0.014996892634305243
11
0.7126050099953992
21
0.029787531856472857
0
LINE
8
cam
10
0.7126050099953992
20
0.029787531856472857
11
0.7096800283520431
21
0.044172794214994565
0
LINE
8
cam
10
0.7096800283520431
20
0.044172794214994565
11
0.7057107264334905
21
0.05796759952439445
0
LINE
8
cam
10
0.7057107264334905
20
0.05796759952439445
11
0.7008167930953444
21
0.07100740020482381
0
LINE
8
cam
10
0.7008167930953444
20
0.07100740020482381
11
0.6951436253172724
21
0.08315405891811026
0
LINE
8
cam
10
0.6951436253172724
20
0.08315405891811026
11
0.6888560304628737
21
0.09430095890736556
0
LINE
8
cam
10
0.6888560304628737
20
0.09430095890736556
11
0.692030423747672
21
0.105788634633949
0
LINE
8
cam
10
0.692030423747672
20
0.105788634633949
11
0.6850261236247828
21
0.11489554015413178
0
LINE
8
cam
10
0.6850261236247828
20
0.11489554015413178
11
0.677933551672467
21
0.12289730376997968
0
LINE
8
cam
10
0.677933551672467
20
0.12289730376997968
11
0.670901102757546
21
0.12984781898958608
0
LINE
8
cam
10
0.670901102757546
20
0.12984781898958608
11
0.6640368624019005
21
0.1358480373912755
0
LINE
8
cam
10
0.6640368624019005
20
0.1358480373912755
11
0.6573839698512107
21
0.1410513971048328
0
LINE
8
cam
10
0.6573839698512107
20
0.1410513971048328
11
0.6508839653860947
21
0.14567707723860923
0
LINE
8
cam
10
0.6508839653860947
20
0.14567707723860923
11
0.6443191112369755
21
0.1500439535300879
0
LINE
8
cam
10
0.6443191112369755
20
0.1500439535300879
11
0.637222214265635
21
0.15465865080810048
0
LINE
8
cam
10
0.637222214265635
20
0.15465865080810048
11
0.6287653516419631
21
0.1604423891045372
0
LINE
8
cam
10
0.6287653516419631
20
0.1604423891045372
11
0.6178220104943388
21
0.16925623861450273
0
LINE
8
cam
10
0.6178220104943388
20
0.16925623861450273
11
0.5945451762367268
21
0.181786911991062
0
LINE
8
cam
10
0.5945451762367268
20
0.181786911991062
11
0.582452583336277
21
0.20549630125934
0
LINE
8
cam
10
0.582452583336277
20
0.20549630125934
11
0.5782996671460434
21
0.23178544787248898
0
LINE
8
cam
10
0.5782996671460434
20
0.23178544787248898
11
0.5897656766236651
21
0.25560475548176775
0
LINE
8
cam
10
0.5897656766236651
20
0.25560475548176775
11
0.5934383748294528
21
0.2691676440585721
0
LINE
8
cam
10
0.5934383748294528
20
0.2691676440585721
11
0.5968805243373331
21
0.27881760576226433
0
LINE
8
cam
10
0.5968805243373331
20
0.27881760576226433
11
0.5999095835906656
21
0.2867224256608655
0
LINE
8
cam
10
0.5999095835906656
20
0.2867224256608655
11
0.602653876680179
21
0.29411402724530794
0
LINE
8
cam
10
0.602653876680179
20
0.29411402724530794
11
0.6051935841915149
21
0.30167688784850616
0
LINE
8
cam
10
0.6051935841915149
20
0.30167688784850616
11
0.6075174292247716
21
0.3097969664110018
0
LINE
8
cam
10
0.6075174292247716
20
0.3097969664110018
11
0.6095438764389163
21
0.31868594431716923
0
LINE
8
cam
10
0.6095438764389163
20
0.31868594431716923
11
0.6111478367812421
21
0.32844259900918327
0
LINE
8
cam
10
0.6111478367812421
20
0.32844259900918327
11
0.6121825293787666
21
0.33908507095376966
0
LINE
8
cam
10
0.6121825293787666
20
0.33908507095376966
11
0.6124962224531022
21
0.35056973660062934
0
LINE
8
cam
10
0.6124962224531022
20
0.35056973660062934
11
0.6031757979636666
21
0.3579975999315232
0
LINE
8
cam
10
0.6031757979636666
20
0.3579975999315232
11
0.6017105856321565
21
0.37071138698523437
0
LINE
8
cam
10
0.6017105856321565
20
0.37071138698523437
11
0.5991606479202571
21
0.383872844662887
0
LINE
8
cam
10
0.5991606479202571
20
0.383872844662887
11
0.595455320627366
21
0.39729884685848127
0
LINE
8
cam
10
0.595455320627366
20
0.39729884685848127
11
0.5905581702161687
21
0.4107921759175009
0
LINE
8
cam
10
0.5905581702161687
20
0.4107921759175009
11
0.5844690850091814
21
0.424149358707278
0
LINE
8
cam
10
0.5844690850091814
20
0.424149358707278
11
0.5772248090827231
21
0.4371683196713744
0
LINE
8
cam
10
0.5772248090827231
20
0.4371683196713744
11
0.5688980006968347
21
0.44965571800374193
0
LINE
8
cam
10
0.5688980006968347
20
0.44965571800374193
11
0.5595949044414066
21
0.4614338016793131
0
LINE
8
cam
10
0.5595949044414066
20
0.4614338016793131
11
0.5494517411543275
21
0.4723465976920213
0
LINE
8
cam
10
0.5494517411543275
20
0.4723465976920213
11
0.5386299362319207
21
0.48226525833541667
0
LINE
8
cam
10
0.5386299362319207
20
0.48226525833541667
11
0.5273103204048956
21
0.4910923931351937
0
LINE
8
cam
10
0.5273103204048956
20
0.4910923931351937
11
0.5156864426322072
21
0.4987652316470583
0
LINE
8
cam
10
0.5156864426322072
20
0.4987652316470583
11
0.5039571266315073
21
0.505257480617248
0
LINE
8
cam
10
0.5039571266315073
20
0.505257480617248
11
0.49231837211809076
21
0.5105797566153477
0
LINE
8
cam
10
0.49231837211809076
20
0.5105797566153477
11
0.4881342238571183
21
0.5217393430618031
0
LINE
8
cam
10
0.4881342238571183
20
0.5217393430618031
11
0.477114721265214
21
0.5249899600789332
0
LINE
8
cam
10
0.477114721265214
20
0.5249899600789332
11
0.4666733913762376
21
0.527294613634731
0
LINE
8
cam
10
0.4666733913762376
20
0.527294613634731
11
0.4568986103500739
21
0.5287841288073635
0
LINE
8
cam
10
0.4568986103500739
20
0.5287841288073635
11
0.44781848336183516
21
0.5296037082150522
0
LINE
8
cam
10
0.44781848336183516
20
0.5296037082150522
11
0.43937772212457493
21
0.529902842524784
0
LINE
8
cam
10
0.43937772212457493
20
0.529902842524784
11
0.43140020148432695
21
0.5298244895991215
0
LINE
8
cam
10
0.43140020148432695
20
0.5298244895991215
11
0.4235223374293799
21
0.5294986422789576
0
LINE
8
cam
10
0.4235223374293799
20
0.5294986422789576
11
0.41506837616842734
21
0.5290605594239723
0
LINE
8
cam
10
0.41506837616842734
20
0.5290605594239723
11
0.4048270345130178
21
0.528768882865949
0
LINE
8
cam
10
0.4048270345130178
20
0.528768882865949
11
0.39079303479146416
21
0.5294671023679957
0
LINE
8
cam
10
0.39079303479146416
20
0.5294671023679957
11
0.3645963352897715
21
0.5259228501839132
0
LINE
8
cam
10
0.3645963352897715
20
0.5259228501839132
11
0.34087719277449446
21
0.5379963012593401
0
LINE
8
cam
10
0.34087719277449446
20
0.5379963012593401
11
0.3220650403258172
21
0.5568236447463663
0
LINE
8
cam
10
0.3220650403258172
20
0.5568236447463663
11
0.31734059911832535
21
0.5828334206701088
0
LINE
8
cam
10
0.31734059911832535
20
0.5828334206701088
11
0.3123398084980864
21
0.5959647858630406
0
LINE
8
cam
10
0.3123398084980864
20
0.5959647858630406
11
0.3094524607725234
21
0.6057950135933128
0
LINE
8
cam
10
0.3094524607725234
20
0.6057950135933128
11
0.3072566846270123
21
0.6139705835861832
0
LINE
8
cam
10
0.3072566846270123
20
0.6139705835861832
11
0.30513218997181735
21
0.6215635698896301
0
LINE
8
cam
10
0.30513218997181735
20
0.6215635698896301
11
0.3027415185815262
21
0.6291748552640057
0
LINE
8
cam
10
0.3027415185815262
20
0.6291748552640057
11
0.2998486862792334
21
0.637110058655886
0
LINE
8
cam
10
0.2998486862792334
20
0.637110058655886
11
0.2962633063924815
21
0.6454925086316222
0
LINE
8
cam
10
0.2962633063924815
20
0.6454925086316222
11
0.29182611982805035
21
0.6543285923201907
0
LINE
8
cam
10
0.29182611982805035
20
0.6543285923201907
11
0.2864077156664374
21
0.6635467100350009
0
LINE
8
cam
10
0.2864077156664374
20
0.6635467100350009
11
0.2799109815998586
21
0.6730223838808652
0
LINE
8
cam
10
0.2799109815998586
20
0.6730223838808652
11
0.2680046112711732
21
0.673553243487457
0
LINE
8
cam
10
0.2680046112711732
20
0.673553243487457
11
0.25934625306365533
21
0.6829776830768346
0
LINE
8
cam
10
0.25934625306365533
20
0.6829776830768346
11
0.24954719939853576
21
0.6921267102274836
0
LINE
8
cam
10
0.24954719939853576
20
0.6921267102274836
11
0.23865792056104856
21
0.7008106374325566
0
LINE
8
cam
10
0.23865792056104856
20
0.7008106374325566
11
0.22676486282915875
21
0.7088484971620369
0
LINE
8
cam
10
0.22676486282915875
20
0.7088484971620369
11
0.21398753436050294
21
0.71607561055132
0
LINE
8
cam
10
0.21398753436050294
20
0.71607561055132
11
0.20047443876918952
21
0.722350092667268
0
LINE
8
cam
10
0.20047443876918952
20
0.722350092667268
11
0.18639800069683482
21
0.7275582349657924
0
LINE
8
cam
10
0.18639800069683482
20
0.7275582349657924
11
0.1719486538411199
21
0.7316186820409016
0
LINE
8
cam
10
0.1719486538411199
20
0.7316186820409016
11
0.157328281807607
21
0.7344853176795904
0
LINE
8
cam
10
0.157328281807607
20
0.7344853176795904
11
0.14274321526688777
21
0.7361487853649582
0
LINE
8
cam
10
0.14274321526688777
20
0.7361487853649582
11
0.12839699403772203
21
0.7366365841848744
0
LINE
8
cam
10
0.12839699403772203
20
0.7366365841848744
11
0.11448309805858438
21
0.736011697006831
0
LINE
8
cam
10
0.11448309805858438
20
0.736011697006831
11
0.10117783388273567
21
0.7343697177907382
0
LINE
8
cam
10
0.10117783388273567
20
0.7343697177907382
11
0.08863352834771036
21
0.7318344412639161
0
LINE
8
cam
10
0.08863352834771036
20
0.7318344412639161
11
0.07868904096268979
21
0.7384033557080899
0
LINE
8
cam
10
0.07868904096268979
20
0.7384033557080899
11
0.0678634113527604
21
0.7345560590060327
0
LINE
8
cam
10
0.0678634113527604
20
0.7345560590060327
11
0.05806155665696207
21
0.7302833031757587
0
LINE
8
cam
10
0.05806155665696207
20
0.7302833031757587
11
0.04927807763896254
21
0.7257428741322304
0
LINE
8
cam
10
0.04927807763896254
20
0.7257428741322304
11
0.04145036390547292
21
0.7210687630686609
0
LINE
8
cam
10
0.04145036390547292
20
0.7210687630686609
11
0.03444581788335292
21
0.7163494128354511
0
LINE
8
cam
10
0.03444581788335292
20
0.7163494128354511
11
0.028037922806593937
21
0.7115969550048341
0
LINE
8
cam
10
0.028037922806593937
20
0.7115969550048341
11
0.021856125156057657
21
0.7067028466741873
0
LINE
8
cam
10
0.021856125156057657
20
0.7067028466741873
11
0.015274225467601946
21
0.7013793164469202
0
LINE
8
cam
10
0.015274225467601946
20
0.7013793164469202
11
0.007160249202421087
21
0.6951236355658803
0
LINE
8
cam
10
0.007160249202421087
20
0.6951236355658803
11
-0.004603898197535122
21
0.6874395289418339
0
LINE
8
cam
10
-0.004603898197535122
20
0.6874395289418339
11
-0.023714214126729
21
0.6691741350667284
0
LINE
8
cam
10
-0.023714214126729
20
0.6691741350667284
11
-0.05000000000000026
21
0.665
0
LINE
8
cam
10
-0.05000000000000026
20
0.665
11
-0.07628578587327123
21
0.6691741350667284
0
LINE
8
cam
10
-0.07628578587327123
20
0.6691741350667284
11
-0.09539610180246501
21
0.6874395289418341
0
LINE
8
cam
10
-0.09539610180246501
20
0.6874395289418341
11
-0.10716024920242118
21
0.6951236355658805
0
LINE
8
cam
10
-0.10716024920242118
20
0.6951236355658805
11
-0.11527422546760195
21
0.7013793164469204
0
LINE
8
cam
10
-0.11527422546760195
20
0.7013793164469204
11
-0.12185612515605775
21
0.7067028466741874
0
LINE
8
cam
10
-0.12185612515605775
20
0.7067028466741874
11
-0.12803792280659393
21
0.7115969550048342
0
LINE
8
cam
10
-0.12803792280659393
20
0.7115969550048342
11
-0.13444581788335302
21
0.7163494128354511
0
LINE
8
cam
10
-0.13444581788335302
20
0.7163494128354511
11
-0.14145036390547294
21
0.7210687630686607
0
LINE
8
cam
10
-0.14145036390547294
20
0.7210687630686607
11
-0.14927807763896261
21
0.7257428741322304
0
LINE
8
cam
10
-0.14927807763896261
20
0.7257428741322304
11
-0.15806155665696228
21
0.7302833031757586
0
LINE
8
cam
10
-0.15806155665696228
20
0.7302833031757586
11
-0.1678634113527604
21
0.7345560590060326
0
LINE
8
cam
10
-0.1678634113527604
20
0.7345560590060326
11
-0.17868904096269006
21
0.7384033557080901
0
LINE
8
cam
10
-0.17868904096269006
20
0.7384033557080901
11
-0.18863352834771047
21
0.7318344412639163
0
LINE
8
cam
10
-0.18863352834771047
20
0.7318344412639163
11
-0.20117783388273558
21
0.7343697177907382
0
LINE
8
cam
10
-0.20117783388273558
20
0.7343697177907382
11
-0.2144830980585848
21
0.7360116970068311
0
LINE
8
cam
10
-0.2144830980585848
20
0.7360116970068311
11
-0.2283969940377223
21
0.7366365841848743
0
LINE
8
cam
10
-0.2283969940377223
20
0.7366365841848743
11
-0.24274321526688786
21
0.7361487853649583
0
LINE
8
cam
10
-0.24274321526688786
20
0.7361487853649583
11
-0.2573282818076069
21
0.7344853176795904
0
LINE
8
cam
10
-0.2573282818076069
20
0.7344853176795904
11
-0.2719486538411201
21
0.7316186820409015
0
LINE
8
cam
10
-0.2719486538411201
20
0.7316186820409015
11
-0.2863980006968349
21
0.7275582349657924
0
LINE
8
cam
10
-0.2863980006968349
20
0.7275582349657924
11
-0.30047443876918956
21
0.722350092667268
0
LINE
8
cam
10
-0.30047443876918956
20
0.722350092667268
11
-0.3139875343605031
21
0.7160756105513199
0
LINE
8
cam
10
-0.3139875343605031
20
0.7160756105513199
11
-0.32676486282915873
21
0.7088484971620367
0
LINE
8
cam
10
-0.32676486282915873
20
0.7088484971620367
11
-0.33865792056104854
21
0.7008106374325563
0
LINE
8
cam
10
-0.33865792056104854
20
0.7008106374325563
11
-0.3495471993985356
21
0.6921267102274837
0
LINE
8
cam
10
-0.3495471993985356
20
0.6921267102274837
11
-0.3593462530636554
21
0.6829776830768347
0
LINE
8
cam
10
-0.3593462530636554
20
0.6829776830768347
11
-0.36800461127117357
21
0.6735532434874569
0
LINE
8
cam
10
-0.36800461127117357
20
0.6735532434874569
11
-0.37991098159985864
21
0.6730223838808651
0
LINE
8
cam
10
-0.37991098159985864
20
0.6730223838808651
11
-0.38640771566643733
21
0.6635467100350009
0
LINE
8
cam
10
-0.38640771566643733
20
0.6635467100350009
11
-0.3918261198280503
21
0.6543285923201909
0
LINE
8
cam
10
-0.3918261198280503
20
0.6543285923201909
11
-0.39626330639248153
21
0.645492508631622
0
LINE
8
cam
10
-0.39626330639248153
20
0.645492508631622
11
-0.3998486862792335
21
0.6371100586558858
0
LINE
8
cam
10
-0.3998486862792335
20
0.6371100586558858
11
-0.4027415185815261
21
0.6291748552640057
0
LINE
8
cam
10
-0.4027415185815261
20
0.6291748552640057
11
-0.4051321899718173
21
0.62156356988963
0
LINE
8
cam
10
-0.4051321899718173
20
0.62156356988963
11
-0.4072566846270123
21
0.6139705835861833
0
LINE
8
cam
10
-0.4072566846270123
20
0.6139705835861833
11
-0.4094524607725235
21
0.6057950135933127
0
LINE
8
cam
10
-0.4094524607725235
20
0.6057950135933127
11
-0.4123398084980863
21
0.5959647858630405
0
LINE
8
cam
10
-0.4123398084980863
20
0.5959647858630405
11
-0.4173405991183255
21
0.5828334206701088
0
LINE
8
cam
10
-0.4173405991183255
20
0.5828334206701088
11
-0.4220650403258174
21
0.5568236447463659
0
LINE
8
cam
10
-0.4220650403258174
20
0.5568236447463659
11
-0.44087719277449433
21
0.5379963012593403
0
LINE
8
cam
10
-0.44087719277449433
20
0.5379963012593403
11
-0.46459633528977207
21
0.5259228501839129
0
LINE
8
cam
10
-0.46459633528977207
20
0.5259228501839129
11
-0.49079303479146424
21
0.5294671023679955
0
LINE
8
cam
10
-0.49079303479146424
20
0.5294671023679955
11
-0.5048270345130179
21
0.5287688828659491
0
LINE
8
cam
10
-0.5048270345130179
20
0.5287688828659491
11
-0.5150683761684275
21
0.5290605594239725
0
LINE
8
cam
10
-0.5150683761684275
20
0.5290605594239725
11
-0.5235223374293799
21
0.5294986422789576
0
LINE
8
cam
10
-0.5235223374293799
20
0.5294986422789576
11
-0.531400201484327
21
0.5298244895991214
0
LINE
8
cam
10
-0.531400201484327
20
0.5298244895991214
11
-0.5393777221245751
21
0.529902842524784
0
LINE
8
cam
10
-0.5393777221245751
20
0.529902842524784
11
-0.5478184833618353
21
0.5296037082150522
0
LINE
8
cam
10
-0.5478184833618353
20
0.5296037082150522
11
-0.5568986103500739
21
0.5287841288073635
0
LINE
8
cam
10
-0.5568986103500739
20
0.5287841288073635
11
-0.5666733913762376
21
0.527294613634731
0
LINE
8
cam
10
-0.5666733913762376
20
0.527294613634731
11
-0.5771147212652141
21
0.5249899600789332
0
LINE
8
cam
10
-0.5771147212652141
20
0.5249899600789332
11
-0.5881342238571186
21
0.521739343061803
0
LINE
8
cam
10
-0.5881342238571186
20
0.521739343061803
11
-0.5923183721180909
21
0.5105797566153479
0
LINE
8
cam
10
-0.5923183721180909
20
0.5105797566153479
11
-0.6039571266315074
21
0.5052574806172482
0
LINE
8
cam
10
-0.6039571266315074
20
0.5052574806172482
11
-0.6156864426322073
21
0.49876523164705844
0
LINE
8
cam
10
-0.6156864426322073
20
0.49876523164705844
11
-0.6273103204048955
21
0.4910923931351936
0
LINE
8
cam
10
-0.6273103204048955
20
0.4910923931351936
11
-0.6386299362319208
21
0.48226525833541667
0
LINE
8
cam
10
-0.6386299362319208
20
0.48226525833541667
11
-0.6494517411543279
21
0.47234659769202125
0
LINE
8
cam
10
-0.6494517411543279
20
0.47234659769202125
11
-0.6595949044414067
21
0.4614338016793129
0
LINE
8
cam
10
-0.6595949044414067
20
0.4614338016793129
11
-0.6688980006968348
21
0.44965571800374204
0
LINE
8
cam
10
-0.6688980006968348
20
0.44965571800374204
11
-0.6772248090827234
21
0.437168319671374
0
LINE
8
cam
10
-0.6772248090827234
20
0.437168319671374
11
-0.6844690850091818
21
0.42414935870727777
0
LINE
8
cam
10
-0.6844690850091818
20
0.42414935870727777
11
-0.6905581702161689
21
0.4107921759175007
0
LINE
8
cam
10
-0.6905581702161689
20
0.4107921759175007
11
-0.6954553206273659
21
0.39729884685848144
0
LINE
8
cam
10
-0.6954553206273659
20
0.39729884685848144
11
-0.6991606479202573
21
0.38387284466288685
0
LINE
8
cam
10
-0.6991606479202573
20
0.38387284466288685
11
-0.7017105856321565
21
0.3707113869852343
0
LINE
8
cam
10
-0.7017105856321565
20
0.3707113869852343
11
-0.7031757979636667
21
0.3579975999315228
0
LINE
8
cam
10
-0.7031757979636667
20
0.3579975999315228
11
-0.7124962224531023
21
0.3505697366006292
0
LINE
8
cam
10
-0.7124962224531023
20
0.3505697366006292
11
-0.7121825293787667
21
0.33908507095376966
0
LINE
8
cam
10
-0.7121825293787667
20
0.33908507095376966
11
-0.7111478367812419
21
0.32844259900918304
0
LINE
8
cam
10
-0.7111478367812419
20
0.32844259900918304
11
-0.7095438764389164
21
0.31868594431716896
0
LINE
8
cam
10
-0.7095438764389164
20
0.31868594431716896
11
-0.7075174292247716
21
0.3097969664110017
0
LINE
8
cam
10
-0.7075174292247716
20
0.3097969664110017
11
-0.705193584191515
21
0.30167688784850605
0
LINE
8
cam
10
-0.705193584191515
20
0.30167688784850605
11
-0.702653876680179
21
0.2941140272453079
0
LINE
8
cam
10
-0.702653876680179
20
0.2941140272453079
11
-0.6999095835906657
21
0.28672242566086525
0
LINE
8
cam
10
-0.6999095835906657
20
0.28672242566086525
11
-0.696880524337333
21
0.2788176057622643
0
LINE
8
cam
10
-0.696880524337333
20
0.2788176057622643
11
-0.6934383748294528
21
0.2691676440585721
0
LINE
8
cam
10
-0.6934383748294528
20
0.2691676440585721
11
-0.6897656766236652
21
0.25560475548176764
0
LINE
8
cam
10
-0.6897656766236652
20
0.25560475548176764
11
-0.6782996671460436
21
0.2317854478724887
0
LINE
8
cam
10
-0.6782996671460436
20
0.2317854478724887
11
-0.6824525833362775
21
0.20549630125933954
0
LINE
8
cam
10
-0.6824525833362775
20
0.20549630125933954
11
-0.6945451762367272
21
0.1817869119910616
0
LINE
8
cam
10
-0.6945451762367272
20
0.1817869119910616
11
-0.7178220104943389
21
0.1692562386145026
0
LINE
8
cam
10
-0.7178220104943389
20
0.1692562386145026
11
-0.7287653516419633
21
0.1604423891045372
0
LINE
8
cam
10
-0.7287653516419633
20
0.1604423891045372
11
-0.7372222142656351
21
0.15465865080810054
0
LINE
8
cam
10
-0.7372222142656351
20
0.15465865080810054
11
-0.7443191112369758
21
0.15004395353008787
0
LINE
8
cam
10
-0.7443191112369758
20
0.15004395353008787
11
-0.7508839653860948
21
0.1456770772386091
0
LINE
8
cam
10
-0.7508839653860948
20
0.1456770772386091
11
-0.7573839698512109
21
0.14105139710483272
0
LINE
8
cam
10
-0.7573839698512109
20
0.14105139710483272
11
-0.7640368624019007
21
0.13584803739127557
0
LINE
8
cam
10
-0.7640368624019007
20
0.13584803739127557
11
-0.770901102757546
21
0.12984781898958606
0
LINE
8
cam
10
-0.770901102757546
20
0.12984781898958606
11
-0.7779335516724674
21
0.12289730376997951
0
LINE
8
cam
10
-0.7779335516724674
20
0.12289730376997951
11
-0.7850261236247829
21
0.11489554015413161
0
LINE
8
cam
10
-0.7850261236247829
20
0.11489554015413161
11
-0.7920304237476723
21
0.10578863463394889
0
LINE
8
cam
10
-0.7920304237476723
20
0.10578863463394889
11
-0.7888560304628737
21
0.09430095890736563
0
LINE
8
cam
10
-0.7888560304628737
20
0.09430095890736563
11
-0.7951436253172725
21
0.08315405891811037
0
LINE
8
cam
10
-0.7951436253172725
20
0.08315405891811037
11
-0.8008167930953445
21
0.07100740020482346
0
LINE
8
cam
10
-0.8008167930953445
20
0.07100740020482346
11
-0.8057107264334908
21
0.05796759952439407
0
LINE
8
cam
10
-0.8057107264334908
20
0.05796759952439407
11
-0.8096800283520433
21
0.04417279421499419
0
LINE
8
cam
10
-0.8096800283520433
20
0.04417279421499419
11
-0.8126050099953991
21
0.029787531856472975
0
LINE
8
cam
10
-0.8126050099953991
20
0.029787531856472975
11
-0.8143966209138203
21
0.014996892634305094
0
LINE
8
cam
10
-0.8143966209138203
20
0.014996892634305094
11
-0.8150000000000002
21
-4.3341372567007053e-16
0
LINE
8
cam
10
-0.8150000000000002
20
-4.3341372567007053e-16
11
-0.8143966209138203
21
-0.014996892634305434
0
LINE
8
cam
10
-0.8143966209138203
20
-0.014996892634305434
11
-0.8126050099953993
21
-0.029787531856472985
0
LINE
8
cam
10
-0.8126050099953993
20
-0.029787531856472985
11
-0.8096800283520432
21
-0.044172794214994524
0
LINE
8
cam
10
-0.8096800283520432
20
-0.044172794214994524
11
-0.8057107264334906
21
-0.05796759952439439
0
LINE
8
cam
10
-0.8057107264334906
20
-0.05796759952439439
11
-0.8008167930953444
21
-0.07100740020482413
0
LINE
8
cam
10
-0.8008167930953444
20
-0.07100740020482413
11
-0.7951436253172723
21
-0.08315405891811035
0
LINE
8
cam
10
-0.7951436253172723
20
-0.08315405891811035
11
-0.7888560304628739
21
-0.09430095890736566
0
LINE
8
cam
10
-0.7888560304628739
20
-0.09430095890736566
11
-0.7920304237476721
21
-0.10578863463394905
0
LINE
8
cam
10
-0.7920304237476721
20
-0.10578863463394905
11
-0.7850261236247829
21
-0.11489554015413175
0
LINE
8
cam
10
-0.7850261236247829
20
-0.11489554015413175
11
-0.7779335516724668
21
-0.12289730376997982
0
LINE
8
cam
10
-0.7779335516724668
20
-0.12289730376997982
11
-0.7709011027575461
21
-0.12984781898958625
0
LINE
8
cam
10
-0.7709011027575461
20
-0.12984781898958625
11
-0.7640368624019004
21
-0.13584803739127554
0
LINE
8
cam
10
-0.7640368624019004
20
-0.13584803739127554
11
-0.7573839698512107
21
-0.14105139710483272
0
LINE
8
cam
10
-0.7573839698512107
20
-0.14105139710483272
11
-0.7508839653860949
21
-0.14567707723860934
0
LINE
8
cam
10
-0.7508839653860949
20
-0.14567707723860934
11
-0.7443191112369755
21
-0.15004395353008787
0
LINE
8
cam
10
-0.7443191112369755
20
-0.15004395353008787
11
-0.737222214265635
21
-0.1546586508081007
0
LINE
8
cam
10
-0.737222214265635
20
-0.1546586508081007
11
-0.7287653516419632
21
-0.16044238910453715
0
LINE
8
cam
10
-0.7287653516419632
20
-0.16044238910453715
11
-0.7178220104943389
21
-0.16925623861450292
0
LINE
8
cam
10
-0.7178220104943389
20
-0.16925623861450292
11
-0.6945451762367268
21
-0.18178691199106212
0
LINE
8
cam
10
-0.6945451762367268
20
-0.18178691199106212
11
-0.682452583336277
21
-0.20549630125934068
0
LINE
8
cam
10
-0.682452583336277
20
-0.20549630125934068
11
-0.6782996671460436
21
-0.23178544787248934
0
LINE
8
cam
10
-0.6782996671460436
20
-0.23178544787248934
11
-0.6897656766236654
21
-0.255604755481768
0
LINE
8
cam
10
-0.6897656766236654
20
-0.255604755481768
11
-0.6934383748294528
21
-0.26916764405857213
0
LINE
8
cam
10
-0.6934383748294528
20
-0.26916764405857213
11
-0.6968805243373333
21
-0.2788176057622645
0
LINE
8
cam
10
-0.6968805243373333
20
-0.2788176057622645
11
-0.6999095835906657
21
-0.28672242566086564
0
LINE
8
cam
10
-0.6999095835906657
20
-0.28672242566086564
11
-0.7026538766801791
21
-0.294114027245308
0
LINE
8
cam
10
-0.7026538766801791
20
-0.294114027245308
11
-0.7051935841915148
21
-0.3016768878485062
0
LINE
8
cam
10
-0.7051935841915148
20
-0.3016768878485062
11
-0.7075174292247717
21
-0.30979696641100174
0
LINE
8
cam
10
-0.7075174292247717
20
-0.30979696641100174
11
-0.7095438764389163
21
-0.31868594431716935
0
LINE
8
cam
10
-0.7095438764389163
20
-0.31868594431716935
11
-0.711147836781242
21
-0.32844259900918343
0
LINE
8
cam
10
-0.711147836781242
20
-0.32844259900918343
11
-0.7121825293787668
21
-0.3390850709537699
0
LINE
8
cam
10
-0.7121825293787668
20
-0.3390850709537699
11
-0.7124962224531022
21
-0.3505697366006294
0
LINE
8
cam
10
-0.7124962224531022
20
-0.3505697366006294
11
-0.7031757979636667
21
-0.3579975999315232
0
LINE
8
cam
10
-0.7031757979636667
20
-0.3579975999315232
11
-0.7017105856321562
21
-0.3707113869852346
0
LINE
8
cam
10
-0.7017105856321562
20
-0.3707113869852346
11
-0.6991606479202572
21
-0.38387284466288757
0
LINE
8
cam
10
-0.6991606479202572
20
-0.38387284466288757
11
-0.6954553206273661
21
-0.39729884685848116
0
LINE
8
cam
10
-0.6954553206273661
20
-0.39729884685848116
11
-0.6905581702161688
21
-0.41079217591750067
0
LINE
8
cam
10
-0.6905581702161688
20
-0.41079217591750067
11
-0.6844690850091816
21
-0.42414935870727805
0
LINE
8
cam
10
-0.6844690850091816
20
-0.42414935870727805
11
-0.6772248090827229
21
-0.43716831967137454
0
LINE
8
cam
10
-0.6772248090827229
20
-0.43716831967137454
11
-0.6688980006968346
21
-0.4496557180037423
0
LINE
8
cam
10
-0.6688980006968346
20
-0.4496557180037423
11
-0.6595949044414066
21
-0.46143380167931325
0
LINE
8
cam
10
-0.6595949044414066
20
-0.46143380167931325
11
-0.6494517411543276
21
-0.4723465976920214
0
LINE
8
cam
10
-0.6494517411543276
20
-0.4723465976920214
11
-0.6386299362319204
21
-0.48226525833541695
0
LINE
8
cam
10
-0.6386299362319204
20
-0.48226525833541695
11
-0.6273103204048953
21
-0.4910923931351938
0
LINE
8
cam
10
-0.6273103204048953
20
-0.4910923931351938
11
-0.6156864426322074
21
-0.49876523164705816
0
LINE
8
cam
10
-0.6156864426322074
20
-0.49876523164705816
11
-0.6039571266315072
21
-0.5052574806172481
0
LINE
8
cam
10
-0.6039571266315072
20
-0.5052574806172481
11
-0.5923183721180902
21
-0.5105797566153478
0
LINE
8
cam
10
-0.5923183721180902
20
-0.5105797566153478
11
-0.5881342238571184
21
-0.5217393430618031
0
LINE
8
cam
10
-0.5881342238571184
20
-0.5217393430618031
11
-0.5771147212652137
21
-0.5249899600789333
0
LINE
8
cam
10
-0.5771147212652137
20
-0.5249899600789333
11
-0.5666733913762375
21
-0.527294613634731
0
LINE
8
cam
10
-0.5666733913762375
20
-0.527294613634731
11
-0.5568986103500738
21
-0.5287841288073635
0
LINE
8
cam
10
-0.5568986103500738
20
-0.5287841288073635
11
-0.5478184833618351
21
-0.529603708215052
0
LINE
8
cam
10
-0.5478184833618351
20
-0.529603708215052
11
-0.539377722124575
21
-0.529902842524784
0
LINE
8
cam
10
-0.539377722124575
20
-0.529902842524784
11
-0.5314002014843268
21
-0.5298244895991215
0
LINE
8
cam
10
-0.5314002014843268
20
-0.5298244895991215
11
-0.5235223374293798
21
-0.5294986422789575
0
LINE
8
cam
10
-0.5235223374293798
20
-0.5294986422789575
11
-0.5150683761684274
21
-0.5290605594239722
0
LINE
8
cam
10
-0.5150683761684274
20
-0.5290605594239722
11
-0.5048270345130177
21
-0.5287688828659493
0
LINE
8
cam
10
-0.5048270345130177
20
-0.5287688828659493
11
-0.49079303479146413
21
-0.5294671023679955
0
LINE
8
cam
10
-0.49079303479146413
20
-0.5294671023679955
11
-0.4645963352897717
21
-0.5259228501839129
0
LINE
8
cam
10
-0.4645963352897717
20
-0.5259228501839129
11
-0.44087719277449444
21
-0.5379963012593404
0
LINE
8
cam
10
-0.44087719277449444
20
-0.5379963012593404
11
-0.4220650403258163
21
-0.5568236447463675
0
LINE
8
cam
10
-0.4220650403258163
20
-0.5568236447463675
11
-0.4173405991183253
21
-0.5828334206701093
0
LINE
8
cam
10
-0.4173405991183253
20
-0.5828334206701093
11
-0.41233980849808605
21
-0.5959647858630409
0
LINE
8
cam
10
-0.41233980849808605
20
-0.5959647858630409
11
-0.40945246077252323
21
-0.605795013593313
0
LINE
8
cam
10
-0.40945246077252323
20
-0.605795013593313
11
-0.40725668462701226
21
-0.6139705835861834
0
LINE
8
cam
10
-0.40725668462701226
20
-0.6139705835861834
11
-0.4051321899718172
21
-0.6215635698896301
0
LINE
8
cam
10
-0.4051321899718172
20
-0.6215635698896301
11
-0.4027415185815261
21
-0.6291748552640059
0
LINE
8
cam
10
-0.4027415185815261
20
-0.6291748552640059
11
-0.3998486862792336
21
-0.637110058655886
0
LINE
8
cam
10
-0.3998486862792336
20
-0.637110058655886
11
-0.3962633063924814
21
-0.645492508631622
0
LINE
8
cam
10
-0.3962633063924814
20
-0.645492508631622
11
-0.3918261198280503
21
-0.6543285923201907
0
LINE
8
cam
10
-0.3918261198280503
20
-0.6543285923201907
11
-0.38640771566643717
21
-0.6635467100350013
0
LINE
8
cam
10
-0.38640771566643717
20
-0.6635467100350013
11
-0.3799109815998583
21
-0.6730223838808654
0
LINE
8
cam
10
-0.3799109815998583
20
-0.6730223838808654
11
-0.36800461127117334
21
-0.6735532434874572
0
LINE
8
cam
10
-0.36800461127117334
20
-0.6735532434874572
11
-0.3593462530636552
21
-0.6829776830768352
0
LINE
8
cam
10
-0.3593462530636552
20
-0.6829776830768352
11
-0.34954719939853546
21
-0.6921267102274838
0
LINE
8
cam
10
-0.34954719939853546
20
-0.6921267102274838
11
-0.33865792056104854
21
-0.7008106374325563
0
LINE
8
cam
10
-0.33865792056104854
20
-0.7008106374325563
11
-0.3267648628291584
21
-0.7088484971620369
0
LINE
8
cam
10
-0.3267648628291584
20
-0.7088484971620369
11
-0.31398753436050303
21
-0.7160756105513197
0
LINE
8
cam
10
-0.31398753436050303
20
-0.7160756105513197
11
-0.30047443876918956
21
-0.722350092667268
0
LINE
8
cam
10
-0.30047443876918956
20
-0.722350092667268
11
-0.28639800069683474
21
-0.7275582349657925
0
LINE
8
cam
10
-0.28639800069683474
20
-0.7275582349657925
11
-0.27194865384111955
21
-0.7316186820409019
0
LINE
8
cam
10
-0.27194865384111955
20
-0.7316186820409019
11
-0.2573282818076066
21
-0.7344853176795904
0
LINE
8
cam
10
-0.2573282818076066
20
-0.7344853176795904
11
-0.24274321526688714
21
-0.7361487853649582
0
LINE
8
cam
10
-0.24274321526688714
20
-0.7361487853649582
11
-0.228396994037722
21
-0.7366365841848745
0
LINE
8
cam
10
-0.228396994037722
20
-0.7366365841848745
11
-0.2144830980585843
21
-0.736011697006831
0
LINE
8
cam
10
-0.2144830980585843
20
-0.736011697006831
11
-0.20117783388273558
21
-0.7343697177907381
0
LINE
8
cam
10
-0.20117783388273558
20
-0.7343697177907381
11
-0.1886335283477104
21
-0.7318344412639161
0
LINE
8
cam
10
-0.1886335283477104
20
-0.7318344412639161
11
-0.17868904096268984
21
-0.73840335570809
0
LINE
8
cam
10
-0.17868904096268984
20
-0.73840335570809
11
-0.1678634113527604
21
-0.7345560590060324
0
LINE
8
cam
10
-0.1678634113527604
20
-0.7345560590060324
11
-0.15806155665696228
21
-0.7302833031757587
0
LINE
8
cam
10
-0.15806155665696228
20
-0.7302833031757587
11
-0.14927807763896228
21
-0.7257428741322304
0
LINE
8
cam
10
-0.14927807763896228
20
-0.7257428741322304
11
-0.14145036390547266
21
-0.7210687630686605
0
LINE
8
cam
10
-0.14145036390547266
20
-0.7210687630686605
11
-0.13444581788335275
21
-0.716349412835451
0
LINE
8
cam
10
-0.13444581788335275
20
-0.716349412835451
11
-0.1280379228065938
21
-0.7115969550048341
0
LINE
8
cam
10
-0.1280379228065938
20
-0.7115969550048341
11
-0.12185612515605766
21
-0.7067028466741871
0
LINE
8
cam
10
-0.12185612515605766
20
-0.7067028466741871
11
-0.11527422546760176
21
-0.7013793164469202
0
LINE
8
cam
10
-0.11527422546760176
20
-0.7013793164469202
11
-0.10716024920242116
21
-0.6951236355658804
0
LINE
8
cam
10
-0.10716024920242116
20
-0.6951236355658804
11
-0.09539610180246513
21
-0.6874395289418339
0
LINE
8
cam
10
-0.09539610180246513
20
-0.6874395289418339
11
-0.07628578587327092
21
-0.6691741350667283
0
LINE
8
cam
10
-0.07628578587327092
20
-0.6691741350667283
11
-0.050000000000000995
21
-0.665
0
LINE
8
cam
10
-0.050000000000000995
20
-0.665
11
-0.02371421412672869
21
-0.6691741350667286
0
LINE
8
cam
10
-0.02371421412672869
20
-0.6691741350667286
11
-0.004603898197534505
21
-0.6874395289418341
0
LINE
8
cam
10
-0.004603898197534505
20
-0.6874395289418341
11
0.0071602492024214065
21
-0.6951236355658805
0
LINE
8
cam
10
0.0071602492024214065
20
-0.6951236355658805
11
0.015274225467602029
21
-0.7013793164469205
0
LINE
8
cam
10
0.015274225467602029
20
-0.7013793164469205
11
0.02185612515605788
21
-0.7067028466741874
0
LINE
8
cam
10
0.02185612515605788
20
-0.7067028466741874
11
0.02803792280659402
21
-0.7115969550048343
0
LINE
8
cam
10
0.02803792280659402
20
-0.7115969550048343
11
0.03444581788335298
21
-0.7163494128354513
0
LINE
8
cam
10
0.03444581788335298
20
-0.7163494128354513
11
0.041450363905472895
21
-0.7210687630686607
0
LINE
8
cam
10
0.041450363905472895
20
-0.7210687630686607
11
0.04927807763896258
21
-0.7257428741322306
0
LINE
8
cam
10
0.04927807763896258
20
-0.7257428741322306
11
0.05806155665696208
21
-0.7302833031757586
0
LINE
8
cam
10
0.05806155665696208
20
-0.7302833031757586
11
0.06786341135276079
21
-0.7345560590060327
0
LINE
8
cam
10
0.06786341135276079
20
-0.7345560590060327
11
0.07868904096269023
21
-0.7384033557080901
0
LINE
8
cam
10
0.07868904096269023
20
-0.7384033557080901
11
0.08863352834771072
21
-0.7318344412639162
0
LINE
8
cam
10
0.08863352834771072
20
-0.7318344412639162
11
0.10117783388273584
21
-0.7343697177907382
0
LINE
8
cam
10
0.10117783388273584
20
-0.7343697177907382
11
0.11448309805858493
21
-0.7360116970068311
0
LINE
8
cam
10
0.11448309805858493
20
-0.7360116970068311
11
0.1283969940377226
21
-0.7366365841848745
0
LINE
8
cam
10
0.1283969940377226
20
-0.7366365841848745
11
0.14274321526688777
21
-0.7361487853649582
0
LINE
8
cam
10
0.14274321526688777
20
-0.7361487853649582
11
0.15732828180760722
21
-0.7344853176795904
0
LINE
8
cam
10
0.15732828180760722
20
-0.7344853176795904
11
0.17194865384111974
21
-0.7316186820409017
0
LINE
8
cam
10
0.17194865384111974
20
-0.7316186820409017
11
0.1863980006968347
21
-0.7275582349657926
0
LINE
8
cam
10
0.1863980006968347
20
-0.7275582349657926
11
0.20047443876919002
21
-0.722350092667268
0
LINE
8
cam
10
0.20047443876919002
20
-0.722350092667268
11
0.21398753436050355
21
-0.7160756105513196
0
LINE
8
cam
10
0.21398753436050355
20
-0.7160756105513196
11
0.2267648628291587
21
-0.7088484971620368
0
LINE
8
cam
10
0.2267648628291587
20
-0.7088484971620368
11
0.2386579205610489
21
-0.7008106374325562
0
LINE
8
cam
10
0.2386579205610489
20
-0.7008106374325562
11
0.24954719939853576
21
-0.6921267102274834
0
LINE
8
cam
10
0.24954719939853576
20
-0.6921267102274834
11
0.2593462530636555
21
-0.6829776830768347
0
LINE
8
cam
10
0.2593462530636555
20
-0.6829776830768347
11
0.2680046112711734
21
-0.6735532434874567
0
LINE
8
cam
10
0.2680046112711734
20
-0.6735532434874567
11
0.2799109815998586
21
-0.6730223838808653
0
LINE
8
cam
10
0.2799109815998586
20
-0.6730223838808653
11
0.28640771566643736
21
-0.6635467100350009
0
LINE
8
cam
10
0.28640771566643736
20
-0.6635467100350009
11
0.2918261198280506
21
-0.6543285923201902
0
LINE
8
cam
10
0.2918261198280506
20
-0.6543285923201902
11
0.29626330639248155
21
-0.6454925086316218
0
LINE
8
cam
10
0.29626330639248155
20
-0.6454925086316218
11
0.29984868627923356
21
-0.6371100586558859
0
LINE
8
cam
10
0.29984868627923356
20
-0.6371100586558859
11
0.30274151858152615
21
-0.6291748552640057
0
LINE
8
cam
10
0.30274151858152615
20
-0.6291748552640057
11
0.30513218997181724
21
-0.6215635698896298
0
LINE
8
cam
10
0.30513218997181724
20
-0.6215635698896298
11
0.3072566846270124
21
-0.6139705835861831
0
LINE
8
cam
10
0.3072566846270124
20
-0.6139705835861831
11
0.30945246077252336
21
-0.6057950135933127
0
LINE
8
cam
10
0.30945246077252336
20
-0.6057950135933127
11
0.31233980849808657
21
-0.5959647858630406
0
LINE
8
cam
10
0.31233980849808657
20
-0.5959647858630406
11
0.3173405991183254
21
-0.5828334206701089
0
LINE
8
cam
10
0.3173405991183254
20
-0.5828334206701089
11
0.3220650403258171
21
-0.5568236447463661
0
LINE
8
cam
10
0.3220650403258171
20
-0.5568236447463661
11
0.3408771927744958
21
-0.5379963012593393
0
LINE
8
cam
10
0.3408771927744958
20
-0.5379963012593393
11
0.3645963352897729
21
-0.5259228501839127
0
LINE
8
cam
10
0.3645963352897729
20
-0.5259228501839127
11
0.3907930347914645
21
-0.5294671023679955
0
LINE
8
cam
10
0.3907930347914645
20
-0.5294671023679955
11
0.40482703451301805
21
-0.5287688828659493
0
LINE
8
cam
10
0.40482703451301805
20
-0.5287688828659493
11
0.41506837616842757
21
-0.5290605594239723
0
LINE
8
cam
10
0.41506837616842757
20
-0.5290605594239723
11
0.42352233742938006
21
-0.5294986422789576
0
LINE
8
cam
10
0.42352233742938006
20
-0.5294986422789576
11
0.43140020148432706
21
-0.5298244895991213
0
LINE
8
cam
10
0.43140020148432706
20
-0.5298244895991213
11
0.4393777221245751
21
-0.529902842524784
0
LINE
8
cam
10
0.4393777221245751
20
-0.529902842524784
11
0.44781848336183516
21
-0.5296037082150523
0
LINE
8
cam
10
0.44781848336183516
20
-0.5296037082150523
11
0.4568986103500737
21
-0.5287841288073635
0
LINE
8
cam
10
0.4568986103500737
20
-0.5287841288073635
11
0.4666733913762379
21
-0.5272946136347307
0
LINE
8
cam
10
0.4666733913762379
20
-0.5272946136347307
11
0.4771147212652144
21
-0.5249899600789331
0
LINE
8
cam
10
0.4771147212652144
20
-0.5249899600789331
11
0.48813422385711874
21
-0.5217393430618029
0
LINE
8
cam
10
0.48813422385711874
20
-0.5217393430618029
11
0.492318372118091
21
-0.5105797566153476
0
LINE
8
cam
10
0.492318372118091
20
-0.5105797566153476
11
0.5039571266315076
21
-0.5052574806172477
0
LINE
8
cam
10
0.5039571266315076
20
-0.5052574806172477
11
0.5156864426322074
21
-0.49876523164705794
0
LINE
8
cam
10
0.5156864426322074
20
-0.49876523164705794
11
0.5273103204048956
21
-0.49109239313519365
0
LINE
8
cam
10
0.5273103204048956
20
-0.49109239313519365
11
0.5386299362319207
21
-0.4822652583354165
0
LINE
8
cam
10
0.5386299362319207
20
-0.4822652583354165
11
0.5494517411543275
21
-0.47234659769202153
0
LINE
8
cam
10
0.5494517411543275
20
-0.47234659769202153
11
0.5595949044414066
21
-0.4614338016793131
0
LINE
8
cam
10
0.5595949044414066
20
-0.4614338016793131
11
0.5688980006968352
21
-0.4496557180037414
0
LINE
8
cam
10
0.5688980006968352
20
-0.4496557180037414
11
0.5772248090827233
21
-0.43716831967137376
0
LINE
8
cam
10
0.5772248090827233
20
-0.43716831967137376
11
0.5844690850091817
21
-0.42414935870727777
0
LINE
8
cam
10
0.5844690850091817
20
-0.42414935870727777
11
0.590558170216169
21
-0.4107921759175003
0
LINE
8
cam
10
0.590558170216169
20
-0.4107921759175003
11
0.5954553206273661
21
-0.39729884685848094
0
LINE
8
cam
10
0.5954553206273661
20
-0.39729884685848094
11
0.5991606479202572
21
-0.38387284466288685
0
LINE
8
cam
10
0.5991606479202572
20
-0.38387284466288685
11
0.6017105856321565
21
-0.37071138698523415
0
LINE
8
cam
10
0.6017105856321565
20
-0.37071138698523415
11
0.6031757979636666
21
-0.3579975999315233
0
LINE
8
cam
10
0.6031757979636666
20
-0.3579975999315233
11
0.6124962224531022
21
-0.35056973660062923
0
LINE
8
cam
10
0.6124962224531022
20
-0.35056973660062923
11
0.6121825293787667
21
-0.3390850709537699
0
LINE
8
cam
10
0.6121825293787667
20
-0.3390850709537699
11
0.6111478367812417
21
-0.32844259900918277
0
LINE
8
cam
10
0.6111478367812417
20
-0.32844259900918277
11
0.6095438764389159
21
-0.31868594431716873
0
LINE
8
cam
10
0.6095438764389159
20
-0.31868594431716873
11
0.6075174292247717
21
-0.3097969664110015
0
LINE
8
cam
10
0.6075174292247717
20
-0.3097969664110015
11
0.6051935841915149
21
-0.30167688784850594
0
LINE
8
cam
10
0.6051935841915149
20
-0.30167688784850594
11
0.6026538766801789
21
-0.2941140272453078
0
LINE
8
cam
10
0.6026538766801789
20
-0.2941140272453078
11
0.5999095835906655
21
-0.2867224256608654
0
LINE
8
cam
10
0.5999095835906655
20
-0.2867224256608654
11
0.5968805243373329
21
-0.27881760576226444
0
LINE
8
cam
10
0.5968805243373329
20
-0.27881760576226444
11
0.593438374829453
21
-0.26916764405857196
0
LINE
8
cam
10
0.593438374829453
20
-0.26916764405857196
11
0.5897656766236652
21
-0.2556047554817676
0
LINE
8
cam
10
0.5897656766236652
20
-0.2556047554817676
11
0.5782996671460434
21
-0.23178544787248898
0
LINE
8
cam
10
0.5782996671460434
20
-0.23178544787248898
11
0.5824525833362776
21
-0.20549630125933888
0
LINE
8
cam
10
0.5824525833362776
20
-0.20549630125933888
11
0.5945451762367272
21
-0.1817869119910614
0
LINE
8
cam
10
0.5945451762367272
20
-0.1817869119910614
11
0.6178220104943392
21
-0.16925623861450234
0
LINE
8
cam
10
0.6178220104943392
20
-0.16925623861450234
11
0.6287653516419633
21
-0.16044238910453704
0
LINE
8
cam
10
0.6287653516419633
20
-0.16044238910453704
11
0.6372222142656353
21
-0.15465865080810048
0
LINE
8
cam
10
0.6372222142656353
20
-0.15465865080810048
11
0.6443191112369758
21
-0.15004395353008804
0
LINE
8
cam
10
0.6443191112369758
20
-0.15004395353008804
11
0.6508839653860945
21
-0.14567707723860895
0
LINE
8
cam
10
0.6508839653860945
20
-0.14567707723860895
11
0.6573839698512106
21
-0.14105139710483267
0
LINE
8
cam
10
0.6573839698512106
20
-0.14105139710483267
11
0.6640368624019004
21
-0.13584803739127554
0
LINE
8
cam
10
0.6640368624019004
20
-0.13584803739127554
11
0.6709011027575467
21
-0.1298478189895859
0
LINE
8
cam
10
0.6709011027575467
20
-0.1298478189895859
11
0.6779335516724672
21
-0.12289730376997925
0
LINE
8
cam
10
0.6779335516724672
20
-0.12289730376997925
11
0.6850261236247829
21
-0.11489554015413145
0
LINE
8
cam
10
0.6850261236247829
20
-0.11489554015413145
11
0.6920304237476723
21
-0.10578863463394869
0
LINE
8
cam
10
0.6920304237476723
20
-0.10578863463394869
11
0.688856030462874
21
-0.09430095890736527
0
LINE
8
cam
10
0.688856030462874
20
-0.09430095890736527
11
0.6951436253172728
21
-0.08315405891811002
0
LINE
8
cam
10
0.6951436253172728
20
-0.08315405891811002
11
0.7008167930953442
21
-0.0710074002048238
0
LINE
8
cam
10
0.7008167930953442
20
-0.0710074002048238
11
0.7057107264334904
21
-0.057967599524394495
0
LINE
8
cam
10
0.7057107264334904
20
-0.057967599524394495
11
0.7096800283520431
21
-0.044172794214994655
0
LINE
8
cam
10
0.7096800283520431
20
-0.044172794214994655
11
0.7126050099953992
21
-0.029787531856472736
0
LINE
8
cam
10
0.7126050099953992
20
-0.029787531856472736
11
0.7143966209138201
21
-0.014996892634304716
0
LINE
8
cam
10
0.7143966209138201
20
-0.014996892634304716
11
0.7150000000000001
21
5.465446509034335e-16
0
CIRCLE
8
cam
10
-0.05
20
0
40
0.075
0
CIRCLE
8
roller
10
0.8
20
0.0
40
0.075
0
CIRCLE
8
roller
10
0.673002826264945
20
0.4325126539644781
40
0.075
0
CIRCLE
8
roller
10
0.33233201040150917
20
0.7277055962836148
40
0.075
0
CIRCLE
8
roller
10
-0.113851870618628
20
0.7918571535047463
40
0.075
0
CIRCLE
8
roller
10
-0.523888587156228
20
0.6045996594834067
40
0.075
0
CIRCLE
8
roller
10
-0.767594378891598
20
0.22538604547314375
40
0.075
0
CIRCLE
8
roller
10
-0.767594378891598
20
-0.22538604547314353
40
0.075
0
CIRCLE
8
roller
10
-0.5238885871562282
20
-0.6045996594834065
40
0.075
0
CIRCLE
8
roller
10
-0.11385187061862818
20
-0.7918571535047462
40
0.075
0
CIRCLE
8
roller
10
0.33233201040150884
20
-0.7277055962836149
40
0.075
0
CIRCLE
8
roller
10
0.673002826264945
20
-0.43251265396447797
40
0.075
0
CIRCLE
8
roller
10
0
20
0
40
0.075
0
ENDSEC
0
EOF
